<svg xmlns="http://www.w3.org/2000/svg" viewBox="0 0 24 24" fill="currentColor">
  <path d="M12 2C6.48 2 2 6.58 2 12.15c0 4.47 2.87 8.26 6.84 9.6.5.1.68-.22.68-.49v-1.7c-2.78.62-3.37-1.36-3.37-1.36-.45-1.18-1.1-1.49-1.1-1.49-.9-.63.07-.62.07-.62 1 .07 1.53 1.06 1.53 1.06.89 1.57 2.34 1.12 2.9.86.09-.66.35-1.12.63-1.38-2.22-.26-4.56-1.13-4.56-5a3.84 3.84 0 0 1 1-2.65 3.57 3.57 0 0 1 .09-2.61s.84-.27 2.75 1a9.28 9.28 0 0 1 5 0c1.91-1.27 2.75-1 2.75-1a3.57 3.57 0 0 1 .1 2.61 3.84 3.84 0 0 1 1 2.65c0 3.88-2.34 4.74-4.57 5a2.2 2.2 0 0 1 .63 1.71v2.53c0 .27.18.6.69.5A10.17 10.17 0 0 0 22 12.15C22 6.58 17.52 2 12 2Z"/>
</svg>
